<svg xmlns="http://www.w3.org/2000/svg" xmlns:xlink="http://www.w3.org/1999/xlink" width="453" zoomAndPan="magnify" viewBox="0 0 340.5 56.999996" height="75" preserveAspectRatio="xMidYMid meet" version="1.0"><defs><g/></defs><g fill="#000000" fill-opacity="1"><g transform="translate(43.132073, 44.626392)"><g><path d="M 17.921875 -12.011719 L 8.558594 -16.738281 L 17.921875 -21.375 L 17.921875 -29.839844 L -0.09375 -20.238281 L -0.09375 -13.144531 L 17.921875 -3.78125 Z M 17.921875 -12.011719 "/></g></g></g><g fill="#000000" fill-opacity="1"><g transform="translate(64.929664, 44.626392)"><g><path d="M 2.363281 -33.101562 L 2.363281 0 L 24.351562 0 L 24.351562 -7.800781 L 10.449219 -7.800781 L 10.449219 -33.101562 Z M 2.363281 -33.101562 "/></g></g></g><g fill="#000000" fill-opacity="1"><g transform="translate(90.982748, 44.626392)"><g><path d="M 17.734375 -2.601562 L 17.734375 0 L 25.25 0 L 25.25 -25.582031 L 17.355469 -25.582031 L 17.355469 -11.679688 C 17.355469 -8.273438 15.039062 -6.382812 12.816406 -6.382812 C 10.78125 -6.382812 8.796875 -7.992188 8.796875 -11.539062 L 8.796875 -25.582031 L 1.277344 -25.582031 L 1.277344 -11.492188 C 1.230469 -5.058594 3.261719 0.332031 10.78125 0.332031 C 13.429688 0.332031 15.984375 -0.378906 17.734375 -2.601562 Z M 17.734375 -2.601562 "/></g></g></g><g fill="#000000" fill-opacity="1"><g transform="translate(119.541847, 44.626392)"><g><path d="M 1.039062 -31.210938 C 1.039062 -28.417969 3.308594 -27.046875 5.578125 -27.046875 C 7.753906 -27.046875 9.976562 -28.417969 9.976562 -31.210938 C 9.976562 -34.140625 7.707031 -35.558594 5.4375 -35.558594 C 3.261719 -35.558594 1.039062 -34.09375 1.039062 -31.210938 Z M 1.75 -25.582031 L 9.316406 -25.582031 L 9.316406 0 L 1.75 0 Z M 1.75 -25.582031 "/></g></g></g><g fill="#000000" fill-opacity="1"><g transform="translate(132.21376, 44.626392)"><g><path d="M 0.945312 -17.355469 C 0.945312 -11.726562 5.957031 -9.882812 10.78125 -9.457031 C 12.011719 -9.363281 14.847656 -9.597656 14.847656 -7.753906 C 14.847656 -6.902344 13.617188 -6.195312 11.773438 -6.195312 C 10.023438 -6.195312 8.085938 -6.855469 8.039062 -8.605469 L 0.566406 -8.605469 C 0.660156 -2.082031 5.296875 0.660156 11.394531 0.660156 C 17.070312 0.660156 22.320312 -1.511719 22.320312 -7.945312 C 22.320312 -13.996094 16.882812 -16.265625 11.539062 -16.410156 C 10.449219 -16.457031 8.464844 -16.503906 8.464844 -17.828125 C 8.464844 -19.199219 9.976562 -19.578125 11.066406 -19.578125 C 12.625 -19.578125 14.613281 -19.433594 14.660156 -17.449219 L 21.800781 -17.449219 C 21.753906 -23.40625 16.976562 -26.195312 11.492188 -26.195312 C 5.769531 -26.195312 0.945312 -23.550781 0.945312 -17.355469 Z M 0.945312 -17.355469 "/></g></g></g><g fill="#000000" fill-opacity="1"><g transform="translate(156.564646, 44.626392)"><g/></g></g><g fill="#000000" fill-opacity="1"><g transform="translate(168.432747, 44.626392)"><g><path d="M 9.695312 -16.503906 C 9.695312 -22.792969 14.234375 -25.914062 18.773438 -25.914062 C 22.554688 -25.914062 26.386719 -23.738281 27.472656 -19.339844 L 35.65625 -19.339844 C 34.613281 -27.851562 27.285156 -33.621094 18.773438 -33.621094 C 9.316406 -33.621094 1.65625 -26.246094 1.65625 -16.503906 C 1.65625 -6.761719 9.316406 0.472656 18.773438 0.472656 C 27.378906 0.472656 34.472656 -5.25 35.703125 -13.902344 L 27.519531 -13.902344 C 26.480469 -9.410156 22.652344 -7.140625 18.773438 -7.140625 C 14.234375 -7.140625 9.695312 -10.261719 9.695312 -16.503906 Z M 9.695312 -16.503906 "/></g></g></g><g fill="#000000" fill-opacity="1"><g transform="translate(205.644674, 44.626392)"><g><path d="M 8.699219 -33.101562 L 1.136719 -33.101562 L 1.136719 0 L 8.699219 0 Z M 8.699219 -33.101562 "/></g></g></g><g fill="#000000" fill-opacity="1"><g transform="translate(217.418206, 44.626392)"><g><path d="M 27.472656 -12.765625 C 27.472656 -21.894531 20.664062 -26.433594 13.855469 -26.433594 C 7 -26.433594 0.1875 -21.894531 0.1875 -12.765625 C 0.1875 -3.6875 7.046875 0.851562 13.855469 0.851562 C 20.664062 0.851562 27.472656 -3.6875 27.472656 -12.765625 Z M 7.660156 -12.765625 C 7.660156 -17.117188 10.734375 -19.292969 13.855469 -19.292969 C 17.261719 -19.292969 20.003906 -17.117188 20.003906 -12.765625 C 20.003906 -8.464844 16.929688 -6.335938 13.855469 -6.335938 C 10.734375 -6.335938 7.660156 -8.464844 7.660156 -12.765625 Z M 7.660156 -12.765625 "/></g></g></g><g fill="#000000" fill-opacity="1"><g transform="translate(247.348516, 44.626392)"><g><path d="M 8.605469 -23.027344 L 8.605469 -25.582031 L 1.085938 -25.582031 L 1.085938 0 L 8.984375 0 L 8.984375 -13.902344 C 8.984375 -17.164062 11.632812 -19.058594 13.855469 -19.058594 C 15.886719 -19.058594 17.828125 -17.496094 17.828125 -14.042969 L 17.828125 0 L 25.394531 0 L 25.394531 -14.089844 C 25.441406 -20.476562 23.453125 -25.867188 16.171875 -25.960938 C 13.429688 -25.960938 10.402344 -25.296875 8.605469 -23.027344 Z M 8.605469 -23.027344 "/></g></g></g><g fill="#000000" fill-opacity="1"><g transform="translate(276.049459, 44.626392)"><g><path d="M -0.046875 -21.609375 L 9.269531 -17.023438 L -0.046875 -12.4375 L -0.046875 -4.066406 L 17.449219 -13.097656 L 17.449219 -20.757812 L -0.046875 -30.121094 Z M -0.046875 -21.609375 "/></g></g></g></svg>